<?xml version="1.0" encoding="UTF-8" standalone="no"?><!DOCTYPE svg PUBLIC "-//W3C//DTD SVG 1.1//EN" "http://www.w3.org/Graphics/SVG/1.1/DTD/svg11.dtd"><svg width="100%" height="100%" viewBox="0 0 7838 3484" version="1.1" xmlns="http://www.w3.org/2000/svg" xmlns:xlink="http://www.w3.org/1999/xlink" xml:space="preserve" xmlns:serif="http://www.serif.com/" style="fill-rule:evenodd;clip-rule:evenodd;stroke-linecap:round;stroke-linejoin:round;stroke-miterlimit:1.5;"><path d="M5548.243,2425.653l-300.96,0l-55.494,-55.494l-55.086,55.086l-1853.125,0l-55.347,-55.347l-54.334,54.334l-1096.712,0l0,12.126l1096.817,0l55.083,55.083l55.243,-55.243l1852.586,0l55.062,55.062l54.396,-54.396l301.541,0" style="fill:#6985b2;stroke:#000;stroke-width:4.17px;"/><path id="Line-Diamond-1" serif:id="Line Diamond 1" d="M5191.762,2387.56l42.485,42.485l-42.231,42.231l-41.973,-41.606l41.72,-43.11Z" style="fill:#fdfaf6;stroke:#000;stroke-width:4.17px;"/><path id="Line-Diamond-2" serif:id="Line Diamond 2" d="M3227.698,2387.56l42.485,42.485l-42.231,42.231l-41.973,-41.606l41.72,-43.11Z" style="fill:#fdfaf6;stroke:#000;stroke-width:4.17px;"/><path id="N1" d="M5772.234,2166.589l92.692,0l0,-338.38c0.879,-82.651 73.97,-162.036 157.497,-166.543l181.229,0c101.286,-2.114 176.173,50.558 219.152,138.18c40.077,81.706 71.102,166.975 141.337,229.474c79.21,70.486 170.713,120.634 267.067,142.212c141.345,31.653 331.273,-16.225 408.378,-47.996c72.639,-29.931 187.737,-137.81 203.545,-173.619c-107.633,106.863 -239.436,167.852 -400.191,173.892c-148.452,13.023 -287.424,-36.819 -415.277,-160.394c-41.191,-44.36 -76.304,-95.811 -100.842,-159.6c-19.637,-39.292 -40.555,-74.957 -63.522,-104.812c-61.838,-76.471 -148.555,-116.725 -265.206,-113.405l-173.098,0c-70.318,-0.445 -132.137,29.566 -185.803,88.79c-42.103,45.052 -65.925,95.907 -64.316,154.836l-2.643,337.364Z" style="fill:#1c3b64;stroke:#000;stroke-width:4.17px;"/><path id="M1" d="M2746.484,2166.589l90.519,0l0,-338.341c23.007,-93.655 78.1,-177.77 199.339,-179.049c127.749,-1.348 184.606,88.039 206.409,179.365l0,338.025l97.666,0l-0.508,-338.817c14.584,-88.818 84.082,-183.434 202.541,-180.499c101.95,2.526 181.095,69.581 198.952,179.387l0,339.929l92.107,0l0,-341.771c-18.16,-114.129 -123.254,-244.535 -298.682,-239.219c-123.737,3.75 -190.03,56.89 -244.366,132.642c-67.868,-95.879 -152.491,-136.272 -271.943,-132.833c-141.96,4.088 -260.239,123.468 -268.064,230.929l-3.97,350.251Z" style="fill:#1c3b64;stroke:#000;stroke-width:4.17px;"/><path id="E1" d="M4691.248,2166.589l73.412,-73.412l-571.426,1.266c-111.179,-30.044 -176.695,-125.458 -176.644,-218.349c0.047,-84.907 49.073,-195.602 193.718,-215.916l403.189,0.813c58.292,11.859 83.4,40.915 67.334,103.541c-15.953,62.185 -81.2,96.986 -144.577,103.287l-375.036,0c0,0 33.949,-13.693 -43.716,17.735c-43.85,17.745 -39.625,25.968 -39.625,25.968l501.064,0c111.35,-18.512 172.416,-71.867 195.649,-151.437c13.146,-97.719 -45.136,-146.178 -132.635,-174.487l-471.692,0c-143.51,30.477 -243.549,144.641 -243.255,290.495c0.179,88.558 30.608,163.169 104.624,226.504c40.443,34.607 94.268,56.494 161.296,63.991l498.32,0Z" style="fill:#1c3b64;stroke:#000;stroke-width:4.17px;"/><path id="E2" d="M5580.561,2166.589l73.412,-73.412l-571.426,1.266c-111.179,-30.044 -176.695,-125.458 -176.644,-218.349c0.047,-84.907 49.073,-195.602 193.718,-215.916l403.189,0.813c58.292,11.859 83.4,40.915 67.334,103.541c-15.953,62.185 -81.2,96.986 -144.577,103.287l-375.036,0c0,0 33.949,-13.693 -43.716,17.735c-43.85,17.745 -39.625,25.968 -39.625,25.968l501.064,0c111.35,-18.512 172.416,-71.867 195.649,-151.437c13.146,-97.719 -45.136,-146.178 -132.635,-174.487l-471.692,0c-143.51,30.477 -243.549,144.641 -243.255,290.495c0.179,88.558 30.608,163.169 104.624,226.504c40.443,34.607 94.268,56.494 161.296,63.991l498.32,0Z" style="fill:#1c3b64;stroke:#000;stroke-width:4.17px;"/><path id="A1" d="M2141.401,1065.868l365.253,751.945l127.839,242.973c0,0 13.525,27.151 31.918,42.01c18.754,15.151 43.515,27.864 43.515,27.864c-49.492,36.805 -108.827,50.925 -173.28,52.172c-124.58,2.409 -246.223,-59.467 -364.277,-115.694c-118.136,-52.601 -240.899,-67.161 -366.841,-55.582c-42.664,5.329 -83.263,19.948 -121.486,45.26c71.808,-72.8 170.766,-121.401 322.376,-123.074c102.2,6.965 195.584,29.158 278.704,69.08c52.039,26.108 106.102,48.844 165.952,61.934l-365.253,-729.712c-58.297,129.29 -122.689,246.391 -194.537,348.578c-105.79,148.46 -222.011,265.626 -350.961,344.608c-204.53,140.019 -427.119,173.692 -661.426,138.359c-139.394,-30.996 -256.695,-94.128 -359.695,-178.06l-123.074,-126.251c219.573,205.427 406.987,239.344 586.787,232.65c280.733,-15.034 526.663,-156.998 751.151,-377.164c130.067,-133.91 241.168,-303.758 339.05,-498.65l68.286,-153.247" style="fill:#1c3b64;stroke:#000;stroke-width:4.17px;"/><path id="Star1" d="M2076.567,1649.906l-89.406,91.761l93.065,84.655l86.984,-84.655l-90.644,-91.761Z" style="fill:#f1d589;stroke:#000;stroke-width:0.42px;"/><path id="esim-E-outer" d="M5800.046,2446.801l158.145,0c0.766,-67.028 -38.418,-103.482 -89.156,-104.388c-53.791,-0.96 -99.369,36.142 -96.801,99.103c2.466,60.464 43.794,91.981 91.639,91.879c35.895,-0.077 64.685,-12.646 85.315,-49.358l-21.082,-11.217c-16.841,31.649 -33.654,36.949 -61.818,35.849c-41.741,-1.629 -65.384,-26.779 -66.243,-61.868Z" style="fill:#7da6c7;stroke:#000;stroke-width:2.08px;"/><path id="esim-E-inner" d="M5800.763,2424.914l131.051,0.333c-3.302,-34.429 -29.163,-59.488 -66.602,-59.614c-35.748,-0.12 -63.898,27.527 -64.45,59.281" style="fill:#fdfaf7;stroke:#000;stroke-width:2.14px;"/><path id="esim-S" d="M6230.114,2365.633l26.851,0c-6.994,-41.234 -42.129,-62.836 -92.418,-62.618c-49.514,0.215 -85.347,28.725 -82.577,65.815c2.757,36.918 27.013,50.452 75.667,56.417c43.993,5.393 69.452,12.309 77.032,37.152c7.531,24.683 -24.29,48.89 -65.076,48.69c-44.522,-0.218 -59.595,-13.773 -70.613,-47.175l-23.313,0c1.708,34.886 19.614,56.028 66.608,69.48l57.741,0c32.794,-2.629 62.383,-24.352 61.296,-66.924c-0.958,-37.502 -26.334,-56.494 -75.625,-60.288c-46.913,-3.611 -73.628,-7.95 -76.599,-37.086c-2.579,-25.29 18.526,-43.707 55.593,-43.793c36.28,-0.084 62.947,12.504 65.434,40.329" style="fill:#6985b2;stroke:#000;stroke-width:4.17px;"/><path id="esim-I" d="M6380.226,2303.014l-24.718,0l0,230.382l26.019,0l0,-230.382" style="fill:#6985b2;stroke:#000;stroke-width:4.17px;"/><path id="esim-M" d="M6480.398,2303.014l0,230.382l26.019,0l0,-182.006l81.178,133.19l14.076,-0.208l80.047,-136.559l0,185.584l26.019,0l0,-230.382l-26.669,0l-86.33,149.38l-87.345,-149.38l-26.994,0" style="fill:#6985b2;stroke:#000;stroke-width:4.17px;"/><ellipse id="Line-Start-Circle" serif:id="Line Start Circle" cx="5570.257" cy="2429.918" rx="22.015" ry="22.066" style="fill:#f1d589;stroke:#000;stroke-width:4.17px;"/><ellipse id="Line-Start-End" serif:id="Line Start End" cx="2098.631" cy="2429.918" rx="22.015" ry="22.066" style="fill:#f1d589;stroke:#000;stroke-width:4.17px;"/></svg>